<?xml version="1.0" encoding="utf-8"?>
<!-- Generator: Adobe Illustrator 23.0.1, SVG Export Plug-In . SVG Version: 6.00 Build 0)  -->
<svg version="1.1" xmlns="http://www.w3.org/2000/svg" xmlns:xlink="http://www.w3.org/1999/xlink" x="0px" y="0px" width="841.9px"
	 height="595.3px" viewBox="0 0 841.9 595.3" style="enable-background:new 0 0 841.9 595.3;" xml:space="preserve">
<style type="text/css">
	.st0{fill:#8B4598;}
</style>
<g id="Layer_2">
</g>
<g id="Layer_1">
	<path d="M392,324.7c-6.7,3-12.4,0.7-17.1-7l-32.5-54.6c-3.9-6.2-5-12.1-3.6-17.7c1.4-5.7,5.4-10,11.9-12.9c6.6-3,12.5-3.1,17.5-0.3
		c5,2.6,8.5,7.5,10.6,14.5l19.4,60.5C400.8,315.8,398.7,321.7,392,324.7z"/>
	<path d="M461.2,319.9c-2.8,3.2-6.4,3.4-10.8,0.5l-30.6-21.1c-3.6-2.4-5.6-5.2-6.2-8.5c-0.6-3.4,0.4-6.6,3.2-9.7
		c2.8-3.2,5.9-4.7,9.2-4.4c3.3,0.2,6.4,1.9,9.2,5.1l25,27.4C463.7,313.1,464,316.6,461.2,319.9z"/>
	<path d="M387.7,319.9c2.8,3.2,6.4,3.4,10.8,0.5l30.6-21.1c3.6-2.4,5.6-5.2,6.2-8.5c0.6-3.4-0.4-6.6-3.2-9.7
		c-2.8-3.2-5.9-4.7-9.2-4.4c-3.3,0.2-6.4,1.9-9.2,5.1l-25,27.4C385.2,313.1,384.8,316.6,387.7,319.9z"/>
	<path class="st0" d="M452.3,324.6c6.7,3,12.4,0.7,17.1-7l32.5-54.6c3.9-6.2,5-12.1,3.6-17.7c-1.4-5.7-5.4-10-11.9-12.9
		c-6.6-3-12.5-3.1-17.5-0.3c-5,2.6-8.5,7.5-10.6,14.5l-19.4,60.5C443.5,315.7,445.5,321.5,452.3,324.6z M432,369.8
		c5.7,2.6,11.1,2.9,16,1c4.9-2.1,8.6-5.9,11-11.3c2.4-5.3,2.7-10.5,0.9-15.4c-1.9-5-5.7-8.7-11.4-11.3c-5.9-2.6-11.2-3-16-1
		c-4.8,2-8.5,5.6-10.9,10.9c-2.5,5.5-2.8,10.7-1.1,15.8C422.3,363.4,426.1,367.1,432,369.8z"/>
</g>
</svg>
